<mxfile host="app.diagrams.net" modified="2023-09-06T20:50:29.335Z" agent="Mozilla/5.0 (Macintosh; Intel Mac OS X 10_15_7) AppleWebKit/537.36 (KHTML, like Gecko) Chrome/116.0.0.0 Safari/537.36" etag="n4hUvS_qInkgi6E1PDHV" version="21.7.2" type="github" pages="3">
  <diagram name="restructured" id="JtYRComsGJUL4ytC-l86">
    <mxGraphModel dx="1434" dy="796" grid="1" gridSize="10" guides="1" tooltips="1" connect="1" arrows="1" fold="1" page="1" pageScale="1" pageWidth="850" pageHeight="1100" math="0" shadow="0">
      <root>
        <mxCell id="TmHj_msUuD5EcpxiaH8u-0" />
        <mxCell id="TmHj_msUuD5EcpxiaH8u-1" parent="TmHj_msUuD5EcpxiaH8u-0" />
        <mxCell id="TmHj_msUuD5EcpxiaH8u-2" value="&lt;b&gt;Course&lt;/b&gt;" style="swimlane;fontStyle=0;childLayout=stackLayout;horizontal=1;startSize=37;fillColor=none;horizontalStack=0;resizeParent=1;resizeParentMax=0;resizeLast=0;collapsible=1;marginBottom=0;whiteSpace=wrap;html=1;" parent="TmHj_msUuD5EcpxiaH8u-1" vertex="1">
          <mxGeometry x="40" y="86" width="140" height="37" as="geometry" />
        </mxCell>
        <mxCell id="x_s_KZ4WFngmF_kGWX1p-1" style="edgeStyle=orthogonalEdgeStyle;rounded=0;orthogonalLoop=1;jettySize=auto;html=1;entryX=0;entryY=0.25;entryDx=0;entryDy=0;endArrow=none;endFill=0;exitX=1;exitY=0.5;exitDx=0;exitDy=0;" parent="TmHj_msUuD5EcpxiaH8u-1" source="Zb65NVKXJX859vyG3BSj-3" target="TmHj_msUuD5EcpxiaH8u-11" edge="1">
          <mxGeometry relative="1" as="geometry">
            <mxPoint x="200" y="230" as="sourcePoint" />
          </mxGeometry>
        </mxCell>
        <mxCell id="TmHj_msUuD5EcpxiaH8u-6" value="«abstract»&lt;br&gt;&lt;b&gt;Exercise&lt;/b&gt;" style="swimlane;fontStyle=0;childLayout=stackLayout;horizontal=1;startSize=33;fillColor=none;horizontalStack=0;resizeParent=1;resizeParentMax=0;resizeLast=0;collapsible=1;marginBottom=0;whiteSpace=wrap;html=1;" parent="TmHj_msUuD5EcpxiaH8u-1" vertex="1">
          <mxGeometry x="40" y="147" width="160" height="129" as="geometry" />
        </mxCell>
        <mxCell id="TmHj_msUuD5EcpxiaH8u-7" value="title" style="text;strokeColor=none;fillColor=none;align=left;verticalAlign=top;spacingLeft=4;spacingRight=4;overflow=hidden;rotatable=0;points=[[0,0.5],[1,0.5]];portConstraint=eastwest;whiteSpace=wrap;html=1;" parent="TmHj_msUuD5EcpxiaH8u-6" vertex="1">
          <mxGeometry y="33" width="160" height="20" as="geometry" />
        </mxCell>
        <mxCell id="TmHj_msUuD5EcpxiaH8u-8" value="maxScore" style="text;strokeColor=none;fillColor=none;align=left;verticalAlign=top;spacingLeft=4;spacingRight=4;overflow=hidden;rotatable=0;points=[[0,0.5],[1,0.5]];portConstraint=eastwest;whiteSpace=wrap;html=1;" parent="TmHj_msUuD5EcpxiaH8u-6" vertex="1">
          <mxGeometry y="53" width="160" height="20" as="geometry" />
        </mxCell>
        <mxCell id="TmHj_msUuD5EcpxiaH8u-10" value="dueDate" style="text;strokeColor=none;fillColor=none;align=left;verticalAlign=top;spacingLeft=4;spacingRight=4;overflow=hidden;rotatable=0;points=[[0,0.5],[1,0.5]];portConstraint=eastwest;whiteSpace=wrap;html=1;" parent="TmHj_msUuD5EcpxiaH8u-6" vertex="1">
          <mxGeometry y="73" width="160" height="26" as="geometry" />
        </mxCell>
        <mxCell id="Zb65NVKXJX859vyG3BSj-3" value="selectAssessmentModule()" style="text;strokeColor=none;fillColor=#d5e8d4;align=left;verticalAlign=top;spacingLeft=4;spacingRight=4;overflow=hidden;rotatable=0;points=[[0,0.5],[1,0.5]];portConstraint=eastwest;whiteSpace=wrap;html=1;" parent="TmHj_msUuD5EcpxiaH8u-6" vertex="1">
          <mxGeometry y="99" width="160" height="30" as="geometry" />
        </mxCell>
        <mxCell id="TmHj_msUuD5EcpxiaH8u-11" value="Submission" style="swimlane;fontStyle=1;align=center;verticalAlign=top;childLayout=stackLayout;horizontal=1;startSize=26;horizontalStack=0;resizeParent=1;resizeParentMax=0;resizeLast=0;collapsible=1;marginBottom=0;whiteSpace=wrap;html=1;" parent="TmHj_msUuD5EcpxiaH8u-1" vertex="1">
          <mxGeometry x="226" y="227.39999999999998" width="120" height="132" as="geometry" />
        </mxCell>
        <mxCell id="TmHj_msUuD5EcpxiaH8u-13" value="content" style="text;strokeColor=none;fillColor=none;align=left;verticalAlign=top;spacingLeft=4;spacingRight=4;overflow=hidden;rotatable=0;points=[[0,0.5],[1,0.5]];portConstraint=eastwest;whiteSpace=wrap;html=1;" parent="TmHj_msUuD5EcpxiaH8u-11" vertex="1">
          <mxGeometry y="26" width="120" height="20" as="geometry" />
        </mxCell>
        <mxCell id="TmHj_msUuD5EcpxiaH8u-14" value="" style="line;strokeWidth=1;fillColor=none;align=left;verticalAlign=middle;spacingTop=-1;spacingLeft=3;spacingRight=3;rotatable=0;labelPosition=right;points=[];portConstraint=eastwest;strokeColor=inherit;" parent="TmHj_msUuD5EcpxiaH8u-11" vertex="1">
          <mxGeometry y="46" width="120" height="8" as="geometry" />
        </mxCell>
        <mxCell id="TmHj_msUuD5EcpxiaH8u-15" value="view()" style="text;strokeColor=none;fillColor=none;align=left;verticalAlign=top;spacingLeft=4;spacingRight=4;overflow=hidden;rotatable=0;points=[[0,0.5],[1,0.5]];portConstraint=eastwest;whiteSpace=wrap;html=1;" parent="TmHj_msUuD5EcpxiaH8u-11" vertex="1">
          <mxGeometry y="54" width="120" height="26" as="geometry" />
        </mxCell>
        <mxCell id="Zb65NVKXJX859vyG3BSj-5" value="suggestFeedback()" style="text;strokeColor=none;fillColor=#e1d5e7;align=left;verticalAlign=top;spacingLeft=4;spacingRight=4;overflow=hidden;rotatable=0;points=[[0,0.5],[1,0.5]];portConstraint=eastwest;whiteSpace=wrap;html=1;" parent="TmHj_msUuD5EcpxiaH8u-11" vertex="1">
          <mxGeometry y="80" width="120" height="26" as="geometry" />
        </mxCell>
        <mxCell id="JCDUhj5hZDQGKYfASttn-1" value="assess()" style="text;strokeColor=none;fillColor=none;align=left;verticalAlign=top;spacingLeft=4;spacingRight=4;overflow=hidden;rotatable=0;points=[[0,0.5],[1,0.5]];portConstraint=eastwest;whiteSpace=wrap;html=1;" parent="TmHj_msUuD5EcpxiaH8u-11" vertex="1">
          <mxGeometry y="106" width="120" height="26" as="geometry" />
        </mxCell>
        <mxCell id="TmHj_msUuD5EcpxiaH8u-16" style="edgeStyle=orthogonalEdgeStyle;rounded=0;orthogonalLoop=1;jettySize=auto;html=1;exitX=0.653;exitY=0.006;exitDx=0;exitDy=0;endArrow=block;endFill=0;strokeWidth=1;endSize=10;entryX=0.534;entryY=1.015;entryDx=0;entryDy=0;entryPerimeter=0;exitPerimeter=0;" parent="TmHj_msUuD5EcpxiaH8u-1" edge="1">
          <mxGeometry relative="1" as="geometry">
            <mxPoint x="355.1" y="150.39" as="targetPoint" />
            <mxPoint x="280.251" y="180.15000000000003" as="sourcePoint" />
            <Array as="points">
              <mxPoint x="280" y="170" />
              <mxPoint x="355" y="170" />
            </Array>
          </mxGeometry>
        </mxCell>
        <mxCell id="TmHj_msUuD5EcpxiaH8u-17" style="edgeStyle=orthogonalEdgeStyle;rounded=0;orthogonalLoop=1;jettySize=auto;html=1;exitX=0.705;exitY=0.99;exitDx=0;exitDy=0;endArrow=none;endFill=0;entryX=0.523;entryY=-0.001;entryDx=0;entryDy=0;exitPerimeter=0;entryPerimeter=0;" parent="TmHj_msUuD5EcpxiaH8u-1" source="TmHj_msUuD5EcpxiaH8u-18" target="TmHj_msUuD5EcpxiaH8u-11" edge="1">
          <mxGeometry relative="1" as="geometry" />
        </mxCell>
        <mxCell id="TmHj_msUuD5EcpxiaH8u-18" value="Student" style="swimlane;fontStyle=1;align=center;verticalAlign=top;childLayout=stackLayout;horizontal=1;startSize=34;horizontalStack=0;resizeParent=1;resizeParentMax=0;resizeLast=0;collapsible=1;marginBottom=0;whiteSpace=wrap;html=1;" parent="TmHj_msUuD5EcpxiaH8u-1" vertex="1">
          <mxGeometry x="241.5" y="180" width="67" height="25" as="geometry" />
        </mxCell>
        <mxCell id="TmHj_msUuD5EcpxiaH8u-19" style="edgeStyle=orthogonalEdgeStyle;rounded=0;orthogonalLoop=1;jettySize=auto;html=1;endArrow=block;endFill=0;endSize=10;entryX=0.533;entryY=1.004;entryDx=0;entryDy=0;entryPerimeter=0;exitX=0.363;exitY=0.005;exitDx=0;exitDy=0;exitPerimeter=0;" parent="TmHj_msUuD5EcpxiaH8u-1" edge="1">
          <mxGeometry relative="1" as="geometry">
            <mxPoint x="354.94999999999993" y="150.10399999999998" as="targetPoint" />
            <mxPoint x="428.6875000000001" y="180.125" as="sourcePoint" />
            <Array as="points">
              <mxPoint x="429" y="170" />
              <mxPoint x="355" y="170" />
            </Array>
          </mxGeometry>
        </mxCell>
        <mxCell id="TmHj_msUuD5EcpxiaH8u-20" style="edgeStyle=orthogonalEdgeStyle;rounded=0;orthogonalLoop=1;jettySize=auto;html=1;exitX=0.996;exitY=0.47;exitDx=0;exitDy=0;endArrow=open;endFill=0;endSize=10;entryX=-0.002;entryY=0.872;entryDx=0;entryDy=0;entryPerimeter=0;exitPerimeter=0;" parent="TmHj_msUuD5EcpxiaH8u-1" source="TmHj_msUuD5EcpxiaH8u-22" edge="1">
          <mxGeometry relative="1" as="geometry">
            <mxPoint x="519.6600000000001" y="191.69600000000003" as="targetPoint" />
            <mxPoint x="463.5" y="161.5" as="sourcePoint" />
          </mxGeometry>
        </mxCell>
        <mxCell id="TmHj_msUuD5EcpxiaH8u-21" style="edgeStyle=orthogonalEdgeStyle;rounded=0;orthogonalLoop=1;jettySize=auto;html=1;exitX=0.374;exitY=1;exitDx=0;exitDy=0;endArrow=none;endFill=0;entryX=0.5;entryY=0;entryDx=0;entryDy=0;exitPerimeter=0;" parent="TmHj_msUuD5EcpxiaH8u-1" source="TmHj_msUuD5EcpxiaH8u-22" target="TmHj_msUuD5EcpxiaH8u-34" edge="1">
          <mxGeometry relative="1" as="geometry">
            <mxPoint x="326" y="331.5" as="sourcePoint" />
            <mxPoint x="420" y="230" as="targetPoint" />
          </mxGeometry>
        </mxCell>
        <mxCell id="TmHj_msUuD5EcpxiaH8u-22" value="Tutor" style="swimlane;fontStyle=1;align=center;verticalAlign=top;childLayout=stackLayout;horizontal=1;startSize=34;horizontalStack=0;resizeParent=1;resizeParentMax=0;resizeLast=0;collapsible=1;marginBottom=0;whiteSpace=wrap;html=1;" parent="TmHj_msUuD5EcpxiaH8u-1" vertex="1">
          <mxGeometry x="401" y="180" width="62.5" height="25" as="geometry" />
        </mxCell>
        <mxCell id="TmHj_msUuD5EcpxiaH8u-23" value="«abstract»&lt;br&gt;&lt;b&gt;User&lt;/b&gt;" style="swimlane;fontStyle=0;childLayout=stackLayout;horizontal=1;startSize=40;fillColor=none;horizontalStack=0;resizeParent=1;resizeParentMax=0;resizeLast=0;collapsible=1;marginBottom=0;whiteSpace=wrap;html=1;" parent="TmHj_msUuD5EcpxiaH8u-1" vertex="1">
          <mxGeometry x="280" y="84" width="150" height="66" as="geometry" />
        </mxCell>
        <mxCell id="TmHj_msUuD5EcpxiaH8u-25" value="name" style="text;strokeColor=none;fillColor=none;align=left;verticalAlign=top;spacingLeft=4;spacingRight=4;overflow=hidden;rotatable=0;points=[[0,0.5],[1,0.5]];portConstraint=eastwest;whiteSpace=wrap;html=1;" parent="TmHj_msUuD5EcpxiaH8u-23" vertex="1">
          <mxGeometry y="40" width="150" height="26" as="geometry" />
        </mxCell>
        <mxCell id="TmHj_msUuD5EcpxiaH8u-26" style="edgeStyle=orthogonalEdgeStyle;rounded=0;orthogonalLoop=1;jettySize=auto;html=1;exitX=-0.003;exitY=0.285;exitDx=0;exitDy=0;endArrow=diamondThin;endFill=0;endSize=10;entryX=1;entryY=0.5;entryDx=0;entryDy=0;exitPerimeter=0;" parent="TmHj_msUuD5EcpxiaH8u-1" source="Zb65NVKXJX859vyG3BSj-6" target="TmHj_msUuD5EcpxiaH8u-36" edge="1">
          <mxGeometry relative="1" as="geometry">
            <mxPoint x="463.6099999999999" y="265.18999999999994" as="targetPoint" />
            <mxPoint x="519.49" y="264.7700000000001" as="sourcePoint" />
          </mxGeometry>
        </mxCell>
        <mxCell id="TmHj_msUuD5EcpxiaH8u-27" value="&lt;span style=&quot;font-weight: normal;&quot;&gt;«abstract»&lt;/span&gt;&lt;br&gt;Feedback" style="swimlane;fontStyle=1;align=center;verticalAlign=top;childLayout=stackLayout;horizontal=1;startSize=38;horizontalStack=0;resizeParent=1;resizeParentMax=0;resizeLast=0;collapsible=1;marginBottom=0;whiteSpace=wrap;html=1;" parent="TmHj_msUuD5EcpxiaH8u-1" vertex="1">
          <mxGeometry x="519.5" y="128" width="170" height="156" as="geometry" />
        </mxCell>
        <mxCell id="TmHj_msUuD5EcpxiaH8u-29" value="text" style="text;strokeColor=none;fillColor=none;align=left;verticalAlign=top;spacingLeft=4;spacingRight=4;overflow=hidden;rotatable=0;points=[[0,0.5],[1,0.5]];portConstraint=eastwest;whiteSpace=wrap;html=1;fontSize=12;spacing=2;" parent="TmHj_msUuD5EcpxiaH8u-27" vertex="1">
          <mxGeometry y="38" width="170" height="20" as="geometry" />
        </mxCell>
        <mxCell id="TmHj_msUuD5EcpxiaH8u-30" value="reference" style="text;strokeColor=none;fillColor=none;align=left;verticalAlign=top;spacingLeft=4;spacingRight=4;overflow=hidden;rotatable=0;points=[[0,0.5],[1,0.5]];portConstraint=eastwest;whiteSpace=wrap;html=1;" parent="TmHj_msUuD5EcpxiaH8u-27" vertex="1">
          <mxGeometry y="58" width="170" height="20" as="geometry" />
        </mxCell>
        <mxCell id="JCDUhj5hZDQGKYfASttn-0" value="credits" style="text;strokeColor=none;fillColor=none;align=left;verticalAlign=top;spacingLeft=4;spacingRight=4;overflow=hidden;rotatable=0;points=[[0,0.5],[1,0.5]];portConstraint=eastwest;whiteSpace=wrap;html=1;" parent="TmHj_msUuD5EcpxiaH8u-27" vertex="1">
          <mxGeometry y="78" width="170" height="20" as="geometry" />
        </mxCell>
        <mxCell id="TmHj_msUuD5EcpxiaH8u-31" value="" style="line;strokeWidth=1;fillColor=none;align=left;verticalAlign=middle;spacingTop=-1;spacingLeft=3;spacingRight=3;rotatable=0;labelPosition=right;points=[];portConstraint=eastwest;strokeColor=inherit;" parent="TmHj_msUuD5EcpxiaH8u-27" vertex="1">
          <mxGeometry y="98" width="170" height="8" as="geometry" />
        </mxCell>
        <mxCell id="TmHj_msUuD5EcpxiaH8u-33" value="updateFeedback()" style="text;strokeColor=none;fillColor=none;align=left;verticalAlign=top;spacingLeft=4;spacingRight=4;overflow=hidden;rotatable=0;points=[[0,0.5],[1,0.5]];portConstraint=eastwest;whiteSpace=wrap;html=1;" parent="TmHj_msUuD5EcpxiaH8u-27" vertex="1">
          <mxGeometry y="106" width="170" height="24" as="geometry" />
        </mxCell>
        <mxCell id="Zb65NVKXJX859vyG3BSj-6" value="learnFromFeedback()" style="text;strokeColor=none;fillColor=#e1d5e7;align=left;verticalAlign=top;spacingLeft=4;spacingRight=4;overflow=hidden;rotatable=0;points=[[0,0.5],[1,0.5]];portConstraint=eastwest;whiteSpace=wrap;html=1;" parent="TmHj_msUuD5EcpxiaH8u-27" vertex="1">
          <mxGeometry y="130" width="170" height="26" as="geometry" />
        </mxCell>
        <mxCell id="TmHj_msUuD5EcpxiaH8u-34" value="Assessment" style="swimlane;fontStyle=1;align=center;verticalAlign=top;childLayout=stackLayout;horizontal=1;startSize=26;horizontalStack=0;resizeParent=1;resizeParentMax=0;resizeLast=0;collapsible=1;marginBottom=0;whiteSpace=wrap;html=1;" parent="TmHj_msUuD5EcpxiaH8u-1" vertex="1">
          <mxGeometry x="369.5" y="226.39999999999998" width="110" height="86" as="geometry" />
        </mxCell>
        <mxCell id="TmHj_msUuD5EcpxiaH8u-36" value="score" style="text;strokeColor=none;fillColor=none;align=left;verticalAlign=top;spacingLeft=4;spacingRight=4;overflow=hidden;rotatable=0;points=[[0,0.5],[1,0.5]];portConstraint=eastwest;whiteSpace=wrap;html=1;" parent="TmHj_msUuD5EcpxiaH8u-34" vertex="1">
          <mxGeometry y="26" width="110" height="26" as="geometry" />
        </mxCell>
        <mxCell id="TmHj_msUuD5EcpxiaH8u-37" value="" style="line;strokeWidth=1;fillColor=none;align=left;verticalAlign=middle;spacingTop=-1;spacingLeft=3;spacingRight=3;rotatable=0;labelPosition=right;points=[];portConstraint=eastwest;strokeColor=inherit;" parent="TmHj_msUuD5EcpxiaH8u-34" vertex="1">
          <mxGeometry y="52" width="110" height="8" as="geometry" />
        </mxCell>
        <mxCell id="TmHj_msUuD5EcpxiaH8u-38" value="submit()" style="text;strokeColor=none;fillColor=none;align=left;verticalAlign=top;spacingLeft=4;spacingRight=4;overflow=hidden;rotatable=0;points=[[0,0.5],[1,0.5]];portConstraint=eastwest;whiteSpace=wrap;html=1;" parent="TmHj_msUuD5EcpxiaH8u-34" vertex="1">
          <mxGeometry y="60" width="110" height="26" as="geometry" />
        </mxCell>
        <mxCell id="TmHj_msUuD5EcpxiaH8u-39" style="edgeStyle=orthogonalEdgeStyle;rounded=0;orthogonalLoop=1;jettySize=auto;html=1;exitX=-0.002;exitY=0.242;exitDx=0;exitDy=0;endArrow=none;endFill=0;exitPerimeter=0;" parent="TmHj_msUuD5EcpxiaH8u-1" source="TmHj_msUuD5EcpxiaH8u-23" edge="1">
          <mxGeometry relative="1" as="geometry">
            <mxPoint x="450" y="218" as="sourcePoint" />
            <mxPoint x="180" y="100" as="targetPoint" />
          </mxGeometry>
        </mxCell>
        <mxCell id="TmHj_msUuD5EcpxiaH8u-43" style="edgeStyle=orthogonalEdgeStyle;rounded=0;orthogonalLoop=1;jettySize=auto;html=1;exitX=-0.005;exitY=0.125;exitDx=0;exitDy=0;entryX=1;entryY=0.163;entryDx=0;entryDy=0;endArrow=none;endFill=0;exitPerimeter=0;entryPerimeter=0;" parent="TmHj_msUuD5EcpxiaH8u-1" source="TmHj_msUuD5EcpxiaH8u-36" target="TmHj_msUuD5EcpxiaH8u-13" edge="1">
          <mxGeometry relative="1" as="geometry">
            <mxPoint x="419.5" y="347.4" as="targetPoint" />
          </mxGeometry>
        </mxCell>
        <mxCell id="YoTMfAoftjhr8K2joqNx-0" style="edgeStyle=none;rounded=0;orthogonalLoop=1;jettySize=auto;html=1;exitX=0.5;exitY=0;exitDx=0;exitDy=0;endArrow=block;endFill=0;startSize=16;endSize=12;entryX=0.471;entryY=0.992;entryDx=0;entryDy=0;entryPerimeter=0;" parent="TmHj_msUuD5EcpxiaH8u-1" source="YoTMfAoftjhr8K2joqNx-1" target="Zb65NVKXJX859vyG3BSj-6" edge="1">
          <mxGeometry relative="1" as="geometry">
            <mxPoint x="600.0699999999999" y="271.442" as="targetPoint" />
          </mxGeometry>
        </mxCell>
        <mxCell id="YoTMfAoftjhr8K2joqNx-1" value="Automatic" style="swimlane;fontStyle=1;align=center;verticalAlign=top;childLayout=stackLayout;horizontal=1;startSize=30;horizontalStack=0;resizeParent=1;resizeParentMax=0;resizeLast=0;collapsible=1;marginBottom=0;whiteSpace=wrap;html=1;" parent="TmHj_msUuD5EcpxiaH8u-1" vertex="1">
          <mxGeometry x="561" y="322" width="77.5" height="30" as="geometry" />
        </mxCell>
        <mxCell id="YoTMfAoftjhr8K2joqNx-2" value="Manual" style="swimlane;fontStyle=1;align=center;verticalAlign=top;childLayout=stackLayout;horizontal=1;startSize=30;horizontalStack=0;resizeParent=1;resizeParentMax=0;resizeLast=0;collapsible=1;marginBottom=0;whiteSpace=wrap;html=1;" parent="TmHj_msUuD5EcpxiaH8u-1" vertex="1">
          <mxGeometry x="476" y="322" width="75" height="30" as="geometry" />
        </mxCell>
        <mxCell id="YoTMfAoftjhr8K2joqNx-5" style="edgeStyle=orthogonalEdgeStyle;rounded=0;orthogonalLoop=1;jettySize=auto;html=1;exitX=0.5;exitY=0;exitDx=0;exitDy=0;endArrow=block;endFill=0;startSize=16;endSize=12;entryX=0.471;entryY=0.996;entryDx=0;entryDy=0;entryPerimeter=0;" parent="TmHj_msUuD5EcpxiaH8u-1" source="YoTMfAoftjhr8K2joqNx-3" target="Zb65NVKXJX859vyG3BSj-6" edge="1">
          <mxGeometry relative="1" as="geometry">
            <mxPoint x="679.25" y="333" as="sourcePoint" />
            <mxPoint x="599.9000000000001" y="271.28600000000006" as="targetPoint" />
            <Array as="points">
              <mxPoint x="696" y="309" />
              <mxPoint x="600" y="309" />
            </Array>
          </mxGeometry>
        </mxCell>
        <mxCell id="YoTMfAoftjhr8K2joqNx-6" style="edgeStyle=orthogonalEdgeStyle;rounded=0;orthogonalLoop=1;jettySize=auto;html=1;exitX=0.5;exitY=0;exitDx=0;exitDy=0;endArrow=block;endFill=0;startSize=16;endSize=12;entryX=0.471;entryY=0.996;entryDx=0;entryDy=0;entryPerimeter=0;" parent="TmHj_msUuD5EcpxiaH8u-1" source="YoTMfAoftjhr8K2joqNx-2" target="Zb65NVKXJX859vyG3BSj-6" edge="1">
          <mxGeometry relative="1" as="geometry">
            <mxPoint x="859.25" y="333" as="sourcePoint" />
            <mxPoint x="599.9000000000001" y="271.2080000000001" as="targetPoint" />
            <Array as="points">
              <mxPoint x="514" y="309" />
              <mxPoint x="600" y="309" />
            </Array>
          </mxGeometry>
        </mxCell>
        <mxCell id="wutgID4u6z2NIc7DRNPB-0" value="*" style="text;html=1;strokeColor=none;fillColor=none;align=center;verticalAlign=middle;whiteSpace=wrap;rounded=0;" parent="TmHj_msUuD5EcpxiaH8u-1" vertex="1">
          <mxGeometry x="508.5" y="259.4" width="10" height="10" as="geometry" />
        </mxCell>
        <mxCell id="OSloLFNSEWT27OPmCd1X-0" value="*" style="text;html=1;strokeColor=none;fillColor=none;align=center;verticalAlign=middle;whiteSpace=wrap;rounded=0;" parent="TmHj_msUuD5EcpxiaH8u-1" vertex="1">
          <mxGeometry x="270" y="88" width="10" height="20" as="geometry" />
        </mxCell>
        <mxCell id="_ueuj1EA57YtcwrhqGLK-0" value="*" style="text;html=1;strokeColor=none;fillColor=none;align=center;verticalAlign=middle;whiteSpace=wrap;rounded=0;" parent="TmHj_msUuD5EcpxiaH8u-1" vertex="1">
          <mxGeometry x="112" y="140" width="10" height="10" as="geometry" />
        </mxCell>
        <mxCell id="BykNq2h1hkn2xP7ZN6vr-0" value="*" style="text;html=1;strokeColor=none;fillColor=none;align=center;verticalAlign=middle;whiteSpace=wrap;rounded=0;" parent="TmHj_msUuD5EcpxiaH8u-1" vertex="1">
          <mxGeometry x="413" y="215.4" width="10" height="20" as="geometry" />
        </mxCell>
        <mxCell id="Zb65NVKXJX859vyG3BSj-4" value="*" style="text;html=1;strokeColor=none;fillColor=none;align=center;verticalAlign=middle;whiteSpace=wrap;rounded=0;" parent="TmHj_msUuD5EcpxiaH8u-1" vertex="1">
          <mxGeometry x="216" y="254.39999999999998" width="10" height="10" as="geometry" />
        </mxCell>
        <mxCell id="JCDUhj5hZDQGKYfASttn-2" value="&lt;b&gt;Programming&lt;/b&gt;" style="swimlane;fontStyle=0;childLayout=stackLayout;horizontal=1;startSize=23;fillColor=none;horizontalStack=0;resizeParent=1;resizeParentMax=0;resizeLast=0;collapsible=1;marginBottom=0;whiteSpace=wrap;html=1;" parent="TmHj_msUuD5EcpxiaH8u-1" vertex="1">
          <mxGeometry x="42" y="312.4" width="90" height="47" as="geometry" />
        </mxCell>
        <mxCell id="JCDUhj5hZDQGKYfASttn-3" value="code" style="text;strokeColor=none;fillColor=none;align=left;verticalAlign=top;spacingLeft=4;spacingRight=4;overflow=hidden;rotatable=0;points=[[0,0.5],[1,0.5]];portConstraint=eastwest;whiteSpace=wrap;html=1;" parent="JCDUhj5hZDQGKYfASttn-2" vertex="1">
          <mxGeometry y="23" width="90" height="24" as="geometry" />
        </mxCell>
        <mxCell id="JCDUhj5hZDQGKYfASttn-8" value="&lt;b&gt;Text&lt;/b&gt;" style="swimlane;fontStyle=0;childLayout=stackLayout;horizontal=1;startSize=23;fillColor=none;horizontalStack=0;resizeParent=1;resizeParentMax=0;resizeLast=0;collapsible=1;marginBottom=0;whiteSpace=wrap;html=1;" parent="TmHj_msUuD5EcpxiaH8u-1" vertex="1">
          <mxGeometry x="142" y="312.4" width="70" height="47" as="geometry" />
        </mxCell>
        <mxCell id="JCDUhj5hZDQGKYfASttn-9" value="text" style="text;strokeColor=none;fillColor=none;align=left;verticalAlign=top;spacingLeft=4;spacingRight=4;overflow=hidden;rotatable=0;points=[[0,0.5],[1,0.5]];portConstraint=eastwest;whiteSpace=wrap;html=1;" parent="JCDUhj5hZDQGKYfASttn-8" vertex="1">
          <mxGeometry y="23" width="70" height="24" as="geometry" />
        </mxCell>
        <mxCell id="JCDUhj5hZDQGKYfASttn-10" style="rounded=0;orthogonalLoop=1;jettySize=auto;html=1;exitX=0.448;exitY=0.001;exitDx=0;exitDy=0;endArrow=none;endFill=0;entryX=0.504;entryY=1.014;entryDx=0;entryDy=0;entryPerimeter=0;exitPerimeter=0;edgeStyle=orthogonalEdgeStyle;" parent="TmHj_msUuD5EcpxiaH8u-1" source="TmHj_msUuD5EcpxiaH8u-6" edge="1">
          <mxGeometry relative="1" as="geometry">
            <mxPoint x="297" y="72" as="sourcePoint" />
            <mxPoint x="111.55999999999995" y="123.36400000000003" as="targetPoint" />
          </mxGeometry>
        </mxCell>
        <mxCell id="JCDUhj5hZDQGKYfASttn-12" style="edgeStyle=orthogonalEdgeStyle;rounded=0;orthogonalLoop=1;jettySize=auto;html=1;exitX=0.5;exitY=0;exitDx=0;exitDy=0;endArrow=block;endFill=0;strokeWidth=1;endSize=10;entryX=0.526;entryY=0.992;entryDx=0;entryDy=0;entryPerimeter=0;" parent="TmHj_msUuD5EcpxiaH8u-1" source="JCDUhj5hZDQGKYfASttn-8" target="Zb65NVKXJX859vyG3BSj-3" edge="1">
          <mxGeometry relative="1" as="geometry">
            <mxPoint x="110" y="290" as="targetPoint" />
            <mxPoint x="390" y="417.4" as="sourcePoint" />
            <Array as="points">
              <mxPoint x="177" y="300" />
              <mxPoint x="124" y="300" />
            </Array>
          </mxGeometry>
        </mxCell>
        <mxCell id="JCDUhj5hZDQGKYfASttn-13" style="edgeStyle=orthogonalEdgeStyle;rounded=0;orthogonalLoop=1;jettySize=auto;html=1;endArrow=block;endFill=0;strokeWidth=1;endSize=10;entryX=0.526;entryY=0.994;entryDx=0;entryDy=0;entryPerimeter=0;exitX=0.5;exitY=0;exitDx=0;exitDy=0;" parent="TmHj_msUuD5EcpxiaH8u-1" source="JCDUhj5hZDQGKYfASttn-2" target="Zb65NVKXJX859vyG3BSj-3" edge="1">
          <mxGeometry relative="1" as="geometry">
            <mxPoint x="124.16" y="272.74" as="targetPoint" />
            <mxPoint x="87" y="300" as="sourcePoint" />
            <Array as="points">
              <mxPoint x="87" y="300" />
              <mxPoint x="124" y="300" />
            </Array>
          </mxGeometry>
        </mxCell>
        <mxCell id="JCDUhj5hZDQGKYfASttn-14" value="Instructor" style="swimlane;fontStyle=1;align=center;verticalAlign=top;childLayout=stackLayout;horizontal=1;startSize=34;horizontalStack=0;resizeParent=1;resizeParentMax=0;resizeLast=0;collapsible=1;marginBottom=0;whiteSpace=wrap;html=1;" parent="TmHj_msUuD5EcpxiaH8u-1" vertex="1">
          <mxGeometry x="320.5" y="180" width="69" height="25" as="geometry" />
        </mxCell>
        <mxCell id="JCDUhj5hZDQGKYfASttn-15" style="edgeStyle=orthogonalEdgeStyle;rounded=0;orthogonalLoop=1;jettySize=auto;html=1;endArrow=block;endFill=0;endSize=10;exitX=0.5;exitY=0;exitDx=0;exitDy=0;entryX=0.498;entryY=1.01;entryDx=0;entryDy=0;entryPerimeter=0;" parent="TmHj_msUuD5EcpxiaH8u-1" source="JCDUhj5hZDQGKYfASttn-14" target="TmHj_msUuD5EcpxiaH8u-25" edge="1">
          <mxGeometry relative="1" as="geometry">
            <mxPoint x="480" y="180" as="targetPoint" />
            <mxPoint x="437" y="160" as="sourcePoint" />
            <Array as="points" />
          </mxGeometry>
        </mxCell>
        <mxCell id="YoTMfAoftjhr8K2joqNx-3" value="Suggestion" style="swimlane;fontStyle=1;align=center;verticalAlign=top;childLayout=stackLayout;horizontal=1;startSize=30;horizontalStack=0;resizeParent=1;resizeParentMax=0;resizeLast=0;collapsible=1;marginBottom=0;whiteSpace=wrap;html=1;fillColor=#e1d5e7;strokeColor=#9673a6;" parent="TmHj_msUuD5EcpxiaH8u-1" vertex="1">
          <mxGeometry x="651" y="322" width="89.25" height="98" as="geometry" />
        </mxCell>
        <mxCell id="YoTMfAoftjhr8K2joqNx-4" value="accept()" style="text;strokeColor=none;fillColor=#e1d5e7;align=left;verticalAlign=top;spacingLeft=4;spacingRight=4;overflow=hidden;rotatable=0;points=[[0,0.5],[1,0.5]];portConstraint=eastwest;whiteSpace=wrap;html=1;" parent="YoTMfAoftjhr8K2joqNx-3" vertex="1">
          <mxGeometry y="30" width="89.25" height="20" as="geometry" />
        </mxCell>
        <mxCell id="Zb65NVKXJX859vyG3BSj-0" value="modify()" style="text;strokeColor=none;fillColor=#e1d5e7;align=left;verticalAlign=top;spacingLeft=4;spacingRight=4;overflow=hidden;rotatable=0;points=[[0,0.5],[1,0.5]];portConstraint=eastwest;whiteSpace=wrap;html=1;" parent="YoTMfAoftjhr8K2joqNx-3" vertex="1">
          <mxGeometry y="50" width="89.25" height="20" as="geometry" />
        </mxCell>
        <mxCell id="Zb65NVKXJX859vyG3BSj-1" value="reject()" style="text;strokeColor=none;fillColor=#e1d5e7;align=left;verticalAlign=top;spacingLeft=4;spacingRight=4;overflow=hidden;rotatable=0;points=[[0,0.5],[1,0.5]];portConstraint=eastwest;whiteSpace=wrap;html=1;" parent="YoTMfAoftjhr8K2joqNx-3" vertex="1">
          <mxGeometry y="70" width="89.25" height="28" as="geometry" />
        </mxCell>
        <mxCell id="xAcDYv_85HFIecPkOKpz-0" value="" style="group" parent="TmHj_msUuD5EcpxiaH8u-1" connectable="0" vertex="1">
          <mxGeometry x="463.5" y="78" width="289.5" height="31" as="geometry" />
        </mxCell>
        <mxCell id="xAcDYv_85HFIecPkOKpz-1" value="Legend:" style="text;html=1;strokeColor=none;fillColor=none;align=left;verticalAlign=middle;whiteSpace=wrap;rounded=0;fontStyle=1" parent="xAcDYv_85HFIecPkOKpz-0" vertex="1">
          <mxGeometry width="60" height="30" as="geometry" />
        </mxCell>
        <mxCell id="xAcDYv_85HFIecPkOKpz-2" value="" style="rounded=0;whiteSpace=wrap;html=1;fillColor=#d5e8d4;strokeColor=#82b366;" parent="xAcDYv_85HFIecPkOKpz-0" vertex="1">
          <mxGeometry x="60" y="8" width="16" height="16" as="geometry" />
        </mxCell>
        <mxCell id="xAcDYv_85HFIecPkOKpz-3" value="" style="rounded=0;whiteSpace=wrap;html=1;fillColor=#e1d5e7;strokeColor=#9673a6;" parent="xAcDYv_85HFIecPkOKpz-0" vertex="1">
          <mxGeometry x="131" y="8" width="16" height="16" as="geometry" />
        </mxCell>
        <mxCell id="xAcDYv_85HFIecPkOKpz-4" value="" style="rounded=0;whiteSpace=wrap;html=1;" parent="xAcDYv_85HFIecPkOKpz-0" vertex="1">
          <mxGeometry x="209.5" y="8" width="16" height="16" as="geometry" />
        </mxCell>
        <mxCell id="xAcDYv_85HFIecPkOKpz-5" value="Added" style="text;html=1;strokeColor=none;fillColor=none;align=left;verticalAlign=middle;whiteSpace=wrap;rounded=0;fontStyle=0" parent="xAcDYv_85HFIecPkOKpz-0" vertex="1">
          <mxGeometry x="80" width="60" height="30" as="geometry" />
        </mxCell>
        <mxCell id="xAcDYv_85HFIecPkOKpz-6" value="Modified" style="text;html=1;strokeColor=none;fillColor=none;align=left;verticalAlign=middle;whiteSpace=wrap;rounded=0;fontStyle=0" parent="xAcDYv_85HFIecPkOKpz-0" vertex="1">
          <mxGeometry x="149.5" y="1" width="60" height="30" as="geometry" />
        </mxCell>
        <mxCell id="xAcDYv_85HFIecPkOKpz-7" value="Existing" style="text;html=1;strokeColor=none;fillColor=none;align=left;verticalAlign=middle;whiteSpace=wrap;rounded=0;fontStyle=0" parent="xAcDYv_85HFIecPkOKpz-0" vertex="1">
          <mxGeometry x="229.5" y="1" width="60" height="30" as="geometry" />
        </mxCell>
      </root>
    </mxGraphModel>
  </diagram>
  <diagram name="old" id="trP3-2K4cU4BfkRSxQWy">
    <mxGraphModel grid="1" page="1" gridSize="10" guides="1" tooltips="1" connect="1" arrows="1" fold="1" pageScale="1" pageWidth="850" pageHeight="1100" math="0" shadow="0">
      <root>
        <mxCell id="0" />
        <mxCell id="1" parent="0" />
        <mxCell id="rv6NUnpbZEzaiWxQ6Tsc-1" value="&lt;b&gt;Course&lt;/b&gt;" style="swimlane;fontStyle=0;childLayout=stackLayout;horizontal=1;startSize=26;fillColor=none;horizontalStack=0;resizeParent=1;resizeParentMax=0;resizeLast=0;collapsible=1;marginBottom=0;whiteSpace=wrap;html=1;" vertex="1" parent="1">
          <mxGeometry x="304" y="19" width="140" height="76" as="geometry" />
        </mxCell>
        <mxCell id="rv6NUnpbZEzaiWxQ6Tsc-2" value="title" style="text;strokeColor=none;fillColor=none;align=left;verticalAlign=top;spacingLeft=4;spacingRight=4;overflow=hidden;rotatable=0;points=[[0,0.5],[1,0.5]];portConstraint=eastwest;whiteSpace=wrap;html=1;" vertex="1" parent="rv6NUnpbZEzaiWxQ6Tsc-1">
          <mxGeometry y="26" width="140" height="24" as="geometry" />
        </mxCell>
        <mxCell id="rv6NUnpbZEzaiWxQ6Tsc-3" value="description" style="text;strokeColor=none;fillColor=none;align=left;verticalAlign=top;spacingLeft=4;spacingRight=4;overflow=hidden;rotatable=0;points=[[0,0.5],[1,0.5]];portConstraint=eastwest;whiteSpace=wrap;html=1;" vertex="1" parent="rv6NUnpbZEzaiWxQ6Tsc-1">
          <mxGeometry y="50" width="140" height="26" as="geometry" />
        </mxCell>
        <mxCell id="rv6NUnpbZEzaiWxQ6Tsc-94" style="edgeStyle=orthogonalEdgeStyle;rounded=0;orthogonalLoop=1;jettySize=auto;html=1;exitX=0.5;exitY=0;exitDx=0;exitDy=0;endArrow=none;endFill=0;entryX=1;entryY=0.5;entryDx=0;entryDy=0;" edge="1" parent="1" source="rv6NUnpbZEzaiWxQ6Tsc-5" target="rv6NUnpbZEzaiWxQ6Tsc-2">
          <mxGeometry relative="1" as="geometry">
            <mxPoint x="647" y="-137" as="targetPoint" />
          </mxGeometry>
        </mxCell>
        <mxCell id="rv6NUnpbZEzaiWxQ6Tsc-5" value="&lt;b&gt;Exercise&lt;/b&gt;" style="swimlane;fontStyle=0;childLayout=stackLayout;horizontal=1;startSize=26;fillColor=none;horizontalStack=0;resizeParent=1;resizeParentMax=0;resizeLast=0;collapsible=1;marginBottom=0;whiteSpace=wrap;html=1;" vertex="1" parent="1">
          <mxGeometry x="469" y="97" width="140" height="112" as="geometry" />
        </mxCell>
        <mxCell id="rv6NUnpbZEzaiWxQ6Tsc-6" value="title" style="text;strokeColor=none;fillColor=none;align=left;verticalAlign=top;spacingLeft=4;spacingRight=4;overflow=hidden;rotatable=0;points=[[0,0.5],[1,0.5]];portConstraint=eastwest;whiteSpace=wrap;html=1;" vertex="1" parent="rv6NUnpbZEzaiWxQ6Tsc-5">
          <mxGeometry y="26" width="140" height="20" as="geometry" />
        </mxCell>
        <mxCell id="rv6NUnpbZEzaiWxQ6Tsc-7" value="maxScore" style="text;strokeColor=none;fillColor=none;align=left;verticalAlign=top;spacingLeft=4;spacingRight=4;overflow=hidden;rotatable=0;points=[[0,0.5],[1,0.5]];portConstraint=eastwest;whiteSpace=wrap;html=1;" vertex="1" parent="rv6NUnpbZEzaiWxQ6Tsc-5">
          <mxGeometry y="46" width="140" height="20" as="geometry" />
        </mxCell>
        <mxCell id="rv6NUnpbZEzaiWxQ6Tsc-10" value="problemStatement" style="text;strokeColor=none;fillColor=none;align=left;verticalAlign=top;spacingLeft=4;spacingRight=4;overflow=hidden;rotatable=0;points=[[0,0.5],[1,0.5]];portConstraint=eastwest;whiteSpace=wrap;html=1;" vertex="1" parent="rv6NUnpbZEzaiWxQ6Tsc-5">
          <mxGeometry y="66" width="140" height="20" as="geometry" />
        </mxCell>
        <mxCell id="rv6NUnpbZEzaiWxQ6Tsc-11" value="dueDate" style="text;strokeColor=none;fillColor=none;align=left;verticalAlign=top;spacingLeft=4;spacingRight=4;overflow=hidden;rotatable=0;points=[[0,0.5],[1,0.5]];portConstraint=eastwest;whiteSpace=wrap;html=1;" vertex="1" parent="rv6NUnpbZEzaiWxQ6Tsc-5">
          <mxGeometry y="86" width="140" height="26" as="geometry" />
        </mxCell>
        <mxCell id="rv6NUnpbZEzaiWxQ6Tsc-19" value="Submission" style="swimlane;fontStyle=1;align=center;verticalAlign=top;childLayout=stackLayout;horizontal=1;startSize=26;horizontalStack=0;resizeParent=1;resizeParentMax=0;resizeLast=0;collapsible=1;marginBottom=0;whiteSpace=wrap;html=1;" vertex="1" parent="1">
          <mxGeometry x="361" y="304" width="170" height="104" as="geometry" />
        </mxCell>
        <mxCell id="rv6NUnpbZEzaiWxQ6Tsc-20" value="id" style="text;strokeColor=none;fillColor=none;align=left;verticalAlign=top;spacingLeft=4;spacingRight=4;overflow=hidden;rotatable=0;points=[[0,0.5],[1,0.5]];portConstraint=eastwest;whiteSpace=wrap;html=1;" vertex="1" parent="rv6NUnpbZEzaiWxQ6Tsc-19">
          <mxGeometry y="26" width="170" height="24" as="geometry" />
        </mxCell>
        <mxCell id="rv6NUnpbZEzaiWxQ6Tsc-29" value="credits" style="text;strokeColor=none;fillColor=none;align=left;verticalAlign=top;spacingLeft=4;spacingRight=4;overflow=hidden;rotatable=0;points=[[0,0.5],[1,0.5]];portConstraint=eastwest;whiteSpace=wrap;html=1;" vertex="1" parent="rv6NUnpbZEzaiWxQ6Tsc-19">
          <mxGeometry y="50" width="170" height="20" as="geometry" />
        </mxCell>
        <mxCell id="rv6NUnpbZEzaiWxQ6Tsc-21" value="" style="line;strokeWidth=1;fillColor=none;align=left;verticalAlign=middle;spacingTop=-1;spacingLeft=3;spacingRight=3;rotatable=0;labelPosition=right;points=[];portConstraint=eastwest;strokeColor=inherit;" vertex="1" parent="rv6NUnpbZEzaiWxQ6Tsc-19">
          <mxGeometry y="70" width="170" height="8" as="geometry" />
        </mxCell>
        <mxCell id="rv6NUnpbZEzaiWxQ6Tsc-32" value="reviewSubmission()" style="text;strokeColor=none;fillColor=none;align=left;verticalAlign=top;spacingLeft=4;spacingRight=4;overflow=hidden;rotatable=0;points=[[0,0.5],[1,0.5]];portConstraint=eastwest;whiteSpace=wrap;html=1;" vertex="1" parent="rv6NUnpbZEzaiWxQ6Tsc-19">
          <mxGeometry y="78" width="170" height="26" as="geometry" />
        </mxCell>
        <mxCell id="rv6NUnpbZEzaiWxQ6Tsc-91" style="edgeStyle=orthogonalEdgeStyle;rounded=0;orthogonalLoop=1;jettySize=auto;html=1;exitX=0.25;exitY=0;exitDx=0;exitDy=0;endArrow=block;endFill=0;strokeWidth=1;endSize=10;entryX=0.791;entryY=1.004;entryDx=0;entryDy=0;entryPerimeter=0;" edge="1" parent="1" source="rv6NUnpbZEzaiWxQ6Tsc-33" target="AsIz8oh1SWao4pBGF1q7-1">
          <mxGeometry relative="1" as="geometry">
            <mxPoint x="420" y="216" as="targetPoint" />
          </mxGeometry>
        </mxCell>
        <mxCell id="rv6NUnpbZEzaiWxQ6Tsc-109" style="edgeStyle=orthogonalEdgeStyle;rounded=0;orthogonalLoop=1;jettySize=auto;html=1;exitX=0.5;exitY=1;exitDx=0;exitDy=0;endArrow=none;endFill=0;" edge="1" parent="1" source="rv6NUnpbZEzaiWxQ6Tsc-33" target="rv6NUnpbZEzaiWxQ6Tsc-19">
          <mxGeometry relative="1" as="geometry" />
        </mxCell>
        <mxCell id="rv6NUnpbZEzaiWxQ6Tsc-33" value="Student" style="swimlane;fontStyle=1;align=center;verticalAlign=top;childLayout=stackLayout;horizontal=1;startSize=34;horizontalStack=0;resizeParent=1;resizeParentMax=0;resizeLast=0;collapsible=1;marginBottom=0;whiteSpace=wrap;html=1;" vertex="1" parent="1">
          <mxGeometry x="391" y="252" width="110" height="25" as="geometry" />
        </mxCell>
        <mxCell id="rv6NUnpbZEzaiWxQ6Tsc-92" style="edgeStyle=orthogonalEdgeStyle;rounded=0;orthogonalLoop=1;jettySize=auto;html=1;exitX=0.75;exitY=0;exitDx=0;exitDy=0;endArrow=block;endFill=0;endSize=10;entryX=0.257;entryY=1.01;entryDx=0;entryDy=0;entryPerimeter=0;" edge="1" parent="1" source="rv6NUnpbZEzaiWxQ6Tsc-34" target="AsIz8oh1SWao4pBGF1q7-1">
          <mxGeometry relative="1" as="geometry">
            <mxPoint x="339" y="216" as="targetPoint" />
          </mxGeometry>
        </mxCell>
        <mxCell id="rv6NUnpbZEzaiWxQ6Tsc-108" style="edgeStyle=orthogonalEdgeStyle;rounded=0;orthogonalLoop=1;jettySize=auto;html=1;exitX=0.25;exitY=0;exitDx=0;exitDy=0;endArrow=open;endFill=0;endSize=10;entryX=1;entryY=0.5;entryDx=0;entryDy=0;" edge="1" parent="1" source="rv6NUnpbZEzaiWxQ6Tsc-34" target="rv6NUnpbZEzaiWxQ6Tsc-53">
          <mxGeometry relative="1" as="geometry">
            <mxPoint x="310" y="59" as="targetPoint" />
          </mxGeometry>
        </mxCell>
        <mxCell id="rv6NUnpbZEzaiWxQ6Tsc-110" style="edgeStyle=orthogonalEdgeStyle;rounded=0;orthogonalLoop=1;jettySize=auto;html=1;exitX=0;exitY=0.5;exitDx=0;exitDy=0;entryX=0.75;entryY=0;entryDx=0;entryDy=0;endArrow=none;endFill=0;" edge="1" parent="1" source="rv6NUnpbZEzaiWxQ6Tsc-34" target="rv6NUnpbZEzaiWxQ6Tsc-57">
          <mxGeometry relative="1" as="geometry">
            <mxPoint x="326" y="324.5" as="sourcePoint" />
          </mxGeometry>
        </mxCell>
        <mxCell id="rv6NUnpbZEzaiWxQ6Tsc-34" value="Tutor" style="swimlane;fontStyle=1;align=center;verticalAlign=top;childLayout=stackLayout;horizontal=1;startSize=34;horizontalStack=0;resizeParent=1;resizeParentMax=0;resizeLast=0;collapsible=1;marginBottom=0;whiteSpace=wrap;html=1;" vertex="1" parent="1">
          <mxGeometry x="256" y="252" width="110" height="25" as="geometry" />
        </mxCell>
        <mxCell id="rv6NUnpbZEzaiWxQ6Tsc-35" value="«abstract»&lt;br&gt;&lt;b&gt;User&lt;/b&gt;" style="swimlane;fontStyle=0;childLayout=stackLayout;horizontal=1;startSize=40;fillColor=none;horizontalStack=0;resizeParent=1;resizeParentMax=0;resizeLast=0;collapsible=1;marginBottom=0;whiteSpace=wrap;html=1;" vertex="1" parent="1">
          <mxGeometry x="300" y="129" width="150" height="86" as="geometry" />
        </mxCell>
        <mxCell id="rv6NUnpbZEzaiWxQ6Tsc-36" value="id" style="text;strokeColor=none;fillColor=none;align=left;verticalAlign=top;spacingLeft=4;spacingRight=4;overflow=hidden;rotatable=0;points=[[0,0.5],[1,0.5]];portConstraint=eastwest;whiteSpace=wrap;html=1;" vertex="1" parent="rv6NUnpbZEzaiWxQ6Tsc-35">
          <mxGeometry y="40" width="150" height="20" as="geometry" />
        </mxCell>
        <mxCell id="AsIz8oh1SWao4pBGF1q7-1" value="name" style="text;strokeColor=none;fillColor=none;align=left;verticalAlign=top;spacingLeft=4;spacingRight=4;overflow=hidden;rotatable=0;points=[[0,0.5],[1,0.5]];portConstraint=eastwest;whiteSpace=wrap;html=1;" vertex="1" parent="rv6NUnpbZEzaiWxQ6Tsc-35">
          <mxGeometry y="60" width="150" height="26" as="geometry" />
        </mxCell>
        <mxCell id="rv6NUnpbZEzaiWxQ6Tsc-111" style="edgeStyle=orthogonalEdgeStyle;rounded=0;orthogonalLoop=1;jettySize=auto;html=1;exitX=0.747;exitY=1.012;exitDx=0;exitDy=0;endArrow=diamondThin;endFill=0;endSize=10;exitPerimeter=0;entryX=0.609;entryY=0.009;entryDx=0;entryDy=0;entryPerimeter=0;" edge="1" parent="1" source="rv6NUnpbZEzaiWxQ6Tsc-53" target="rv6NUnpbZEzaiWxQ6Tsc-57">
          <mxGeometry relative="1" as="geometry">
            <mxPoint x="155" y="310" as="targetPoint" />
          </mxGeometry>
        </mxCell>
        <mxCell id="rv6NUnpbZEzaiWxQ6Tsc-46" value="Feedback" style="swimlane;fontStyle=1;align=center;verticalAlign=top;childLayout=stackLayout;horizontal=1;startSize=22;horizontalStack=0;resizeParent=1;resizeParentMax=0;resizeLast=0;collapsible=1;marginBottom=0;whiteSpace=wrap;html=1;" vertex="1" parent="1">
          <mxGeometry x="80" y="18" width="170" height="136" as="geometry" />
        </mxCell>
        <mxCell id="rv6NUnpbZEzaiWxQ6Tsc-47" value="id" style="text;strokeColor=none;fillColor=none;align=left;verticalAlign=top;spacingLeft=4;spacingRight=4;overflow=hidden;rotatable=0;points=[[0,0.5],[1,0.5]];portConstraint=eastwest;whiteSpace=wrap;html=1;" vertex="1" parent="rv6NUnpbZEzaiWxQ6Tsc-46">
          <mxGeometry y="22" width="170" height="18" as="geometry" />
        </mxCell>
        <mxCell id="rv6NUnpbZEzaiWxQ6Tsc-48" value="feedbackText" style="text;strokeColor=none;fillColor=none;align=left;verticalAlign=top;spacingLeft=4;spacingRight=4;overflow=hidden;rotatable=0;points=[[0,0.5],[1,0.5]];portConstraint=eastwest;whiteSpace=wrap;html=1;fontSize=12;spacing=2;" vertex="1" parent="rv6NUnpbZEzaiWxQ6Tsc-46">
          <mxGeometry y="40" width="170" height="20" as="geometry" />
        </mxCell>
        <mxCell id="rv6NUnpbZEzaiWxQ6Tsc-49" value="credits" style="text;strokeColor=none;fillColor=none;align=left;verticalAlign=top;spacingLeft=4;spacingRight=4;overflow=hidden;rotatable=0;points=[[0,0.5],[1,0.5]];portConstraint=eastwest;whiteSpace=wrap;html=1;" vertex="1" parent="rv6NUnpbZEzaiWxQ6Tsc-46">
          <mxGeometry y="60" width="170" height="20" as="geometry" />
        </mxCell>
        <mxCell id="rv6NUnpbZEzaiWxQ6Tsc-50" value="" style="line;strokeWidth=1;fillColor=none;align=left;verticalAlign=middle;spacingTop=-1;spacingLeft=3;spacingRight=3;rotatable=0;labelPosition=right;points=[];portConstraint=eastwest;strokeColor=inherit;" vertex="1" parent="rv6NUnpbZEzaiWxQ6Tsc-46">
          <mxGeometry y="80" width="170" height="8" as="geometry" />
        </mxCell>
        <mxCell id="rv6NUnpbZEzaiWxQ6Tsc-51" value="setCredits()" style="text;strokeColor=none;fillColor=none;align=left;verticalAlign=top;spacingLeft=4;spacingRight=4;overflow=hidden;rotatable=0;points=[[0,0.5],[1,0.5]];portConstraint=eastwest;whiteSpace=wrap;html=1;" vertex="1" parent="rv6NUnpbZEzaiWxQ6Tsc-46">
          <mxGeometry y="88" width="170" height="22" as="geometry" />
        </mxCell>
        <mxCell id="rv6NUnpbZEzaiWxQ6Tsc-53" value="updateFeedback()" style="text;strokeColor=none;fillColor=none;align=left;verticalAlign=top;spacingLeft=4;spacingRight=4;overflow=hidden;rotatable=0;points=[[0,0.5],[1,0.5]];portConstraint=eastwest;whiteSpace=wrap;html=1;" vertex="1" parent="rv6NUnpbZEzaiWxQ6Tsc-46">
          <mxGeometry y="110" width="170" height="26" as="geometry" />
        </mxCell>
        <mxCell id="rv6NUnpbZEzaiWxQ6Tsc-57" value="Assessment" style="swimlane;fontStyle=1;align=center;verticalAlign=top;childLayout=stackLayout;horizontal=1;startSize=26;horizontalStack=0;resizeParent=1;resizeParentMax=0;resizeLast=0;collapsible=1;marginBottom=0;whiteSpace=wrap;html=1;" vertex="1" parent="1">
          <mxGeometry x="140" y="298" width="110" height="110" as="geometry" />
        </mxCell>
        <mxCell id="rv6NUnpbZEzaiWxQ6Tsc-58" value="id" style="text;strokeColor=none;fillColor=none;align=left;verticalAlign=top;spacingLeft=4;spacingRight=4;overflow=hidden;rotatable=0;points=[[0,0.5],[1,0.5]];portConstraint=eastwest;whiteSpace=wrap;html=1;" vertex="1" parent="rv6NUnpbZEzaiWxQ6Tsc-57">
          <mxGeometry y="26" width="110" height="24" as="geometry" />
        </mxCell>
        <mxCell id="rv6NUnpbZEzaiWxQ6Tsc-59" value="credits" style="text;strokeColor=none;fillColor=none;align=left;verticalAlign=top;spacingLeft=4;spacingRight=4;overflow=hidden;rotatable=0;points=[[0,0.5],[1,0.5]];portConstraint=eastwest;whiteSpace=wrap;html=1;" vertex="1" parent="rv6NUnpbZEzaiWxQ6Tsc-57">
          <mxGeometry y="50" width="110" height="26" as="geometry" />
        </mxCell>
        <mxCell id="rv6NUnpbZEzaiWxQ6Tsc-61" value="" style="line;strokeWidth=1;fillColor=none;align=left;verticalAlign=middle;spacingTop=-1;spacingLeft=3;spacingRight=3;rotatable=0;labelPosition=right;points=[];portConstraint=eastwest;strokeColor=inherit;" vertex="1" parent="rv6NUnpbZEzaiWxQ6Tsc-57">
          <mxGeometry y="76" width="110" height="8" as="geometry" />
        </mxCell>
        <mxCell id="rv6NUnpbZEzaiWxQ6Tsc-62" value="submit()" style="text;strokeColor=none;fillColor=none;align=left;verticalAlign=top;spacingLeft=4;spacingRight=4;overflow=hidden;rotatable=0;points=[[0,0.5],[1,0.5]];portConstraint=eastwest;whiteSpace=wrap;html=1;" vertex="1" parent="rv6NUnpbZEzaiWxQ6Tsc-57">
          <mxGeometry y="84" width="110" height="26" as="geometry" />
        </mxCell>
        <mxCell id="rv6NUnpbZEzaiWxQ6Tsc-93" style="edgeStyle=orthogonalEdgeStyle;rounded=0;orthogonalLoop=1;jettySize=auto;html=1;exitX=0.5;exitY=0;exitDx=0;exitDy=0;entryX=0.507;entryY=1;entryDx=0;entryDy=0;entryPerimeter=0;endArrow=none;endFill=0;" edge="1" parent="1" source="rv6NUnpbZEzaiWxQ6Tsc-35" target="rv6NUnpbZEzaiWxQ6Tsc-3">
          <mxGeometry relative="1" as="geometry">
            <mxPoint x="450" y="218" as="sourcePoint" />
          </mxGeometry>
        </mxCell>
        <mxCell id="rv6NUnpbZEzaiWxQ6Tsc-95" style="edgeStyle=orthogonalEdgeStyle;rounded=0;orthogonalLoop=1;jettySize=auto;html=1;exitX=0.359;exitY=1.011;exitDx=0;exitDy=0;entryX=0.933;entryY=-0.007;entryDx=0;entryDy=0;endArrow=none;endFill=0;exitPerimeter=0;entryPerimeter=0;" edge="1" parent="1" source="rv6NUnpbZEzaiWxQ6Tsc-11" target="rv6NUnpbZEzaiWxQ6Tsc-19">
          <mxGeometry relative="1" as="geometry" />
        </mxCell>
        <mxCell id="rv6NUnpbZEzaiWxQ6Tsc-122" value="*" style="text;html=1;strokeColor=none;fillColor=none;align=center;verticalAlign=middle;whiteSpace=wrap;rounded=0;" vertex="1" parent="1">
          <mxGeometry x="222" y="286" width="10" height="20" as="geometry" />
        </mxCell>
        <mxCell id="rv6NUnpbZEzaiWxQ6Tsc-126" value="*" style="text;html=1;strokeColor=none;fillColor=none;align=center;verticalAlign=middle;whiteSpace=wrap;rounded=0;" vertex="1" parent="1">
          <mxGeometry x="540" y="83" width="10" height="20" as="geometry" />
        </mxCell>
        <mxCell id="f8G5mTgghr_1lLVqrSHg-15" style="edgeStyle=orthogonalEdgeStyle;rounded=0;orthogonalLoop=1;jettySize=auto;html=1;exitX=1.001;exitY=0.087;exitDx=0;exitDy=0;entryX=0;entryY=0.866;entryDx=0;entryDy=0;endArrow=none;endFill=0;entryPerimeter=0;exitPerimeter=0;" edge="1" parent="1" source="rv6NUnpbZEzaiWxQ6Tsc-59" target="rv6NUnpbZEzaiWxQ6Tsc-20">
          <mxGeometry relative="1" as="geometry">
            <mxPoint x="361" y="369" as="targetPoint" />
          </mxGeometry>
        </mxCell>
        <mxCell id="f8G5mTgghr_1lLVqrSHg-17" value="*" style="text;html=1;strokeColor=none;fillColor=none;align=center;verticalAlign=middle;whiteSpace=wrap;rounded=0;" vertex="1" parent="1">
          <mxGeometry x="376" y="115" width="10" height="20" as="geometry" />
        </mxCell>
        <mxCell id="f8G5mTgghr_1lLVqrSHg-24" style="edgeStyle=orthogonalEdgeStyle;rounded=0;orthogonalLoop=1;jettySize=auto;html=1;exitX=0.5;exitY=0;exitDx=0;exitDy=0;entryX=0.5;entryY=1;entryDx=0;entryDy=0;endSize=10;endArrow=block;endFill=0;" edge="1" parent="1" source="rv6NUnpbZEzaiWxQ6Tsc-83" target="rv6NUnpbZEzaiWxQ6Tsc-57">
          <mxGeometry relative="1" as="geometry">
            <mxPoint x="196.91666666666669" y="430" as="targetPoint" />
          </mxGeometry>
        </mxCell>
        <mxCell id="rv6NUnpbZEzaiWxQ6Tsc-83" value="&lt;span style=&quot;font-weight: normal;&quot;&gt;«abstract»&lt;/span&gt;&lt;span style=&quot;font-weight: 400;&quot;&gt;&lt;br&gt;&lt;/span&gt;AutomaticAssessmentFactory" style="swimlane;fontStyle=1;align=center;verticalAlign=top;childLayout=stackLayout;horizontal=1;startSize=40;horizontalStack=0;resizeParent=1;resizeParentMax=0;resizeLast=0;collapsible=1;marginBottom=0;whiteSpace=wrap;html=1;" vertex="1" parent="1">
          <mxGeometry x="80" y="439" width="250" height="100" as="geometry">
            <mxRectangle x="2" y="390" width="210" height="40" as="alternateBounds" />
          </mxGeometry>
        </mxCell>
        <mxCell id="rv6NUnpbZEzaiWxQ6Tsc-84" value="machineLearningModel" style="text;strokeColor=none;fillColor=none;align=left;verticalAlign=top;spacingLeft=4;spacingRight=4;overflow=hidden;rotatable=0;points=[[0,0.5],[1,0.5]];portConstraint=eastwest;whiteSpace=wrap;html=1;" vertex="1" parent="rv6NUnpbZEzaiWxQ6Tsc-83">
          <mxGeometry y="40" width="250" height="26" as="geometry" />
        </mxCell>
        <mxCell id="rv6NUnpbZEzaiWxQ6Tsc-128" value="" style="line;strokeWidth=1;fillColor=none;align=left;verticalAlign=middle;spacingTop=-1;spacingLeft=3;spacingRight=3;rotatable=0;labelPosition=right;points=[];portConstraint=eastwest;strokeColor=inherit;" vertex="1" parent="rv6NUnpbZEzaiWxQ6Tsc-83">
          <mxGeometry y="66" width="250" height="8" as="geometry" />
        </mxCell>
        <mxCell id="rv6NUnpbZEzaiWxQ6Tsc-127" value="createAutomaticFeedback()" style="text;strokeColor=none;fillColor=none;align=left;verticalAlign=top;spacingLeft=4;spacingRight=4;overflow=hidden;rotatable=0;points=[[0,0.5],[1,0.5]];portConstraint=eastwest;whiteSpace=wrap;html=1;" vertex="1" parent="rv6NUnpbZEzaiWxQ6Tsc-83">
          <mxGeometry y="74" width="250" height="26" as="geometry" />
        </mxCell>
        <mxCell id="f8G5mTgghr_1lLVqrSHg-9" value="&lt;b&gt;LLM&lt;/b&gt;" style="html=1;whiteSpace=wrap;" vertex="1" parent="1">
          <mxGeometry x="265" y="571" width="65" height="30" as="geometry" />
        </mxCell>
        <mxCell id="f8G5mTgghr_1lLVqrSHg-14" style="edgeStyle=orthogonalEdgeStyle;rounded=0;orthogonalLoop=1;jettySize=auto;html=1;exitX=0.5;exitY=0;exitDx=0;exitDy=0;entryX=0.5;entryY=0;entryDx=0;entryDy=0;endArrow=none;endFill=0;" edge="1" parent="1" source="f8G5mTgghr_1lLVqrSHg-10" target="f8G5mTgghr_1lLVqrSHg-9">
          <mxGeometry relative="1" as="geometry">
            <Array as="points">
              <mxPoint x="115" y="563" />
              <mxPoint x="298" y="563" />
            </Array>
          </mxGeometry>
        </mxCell>
        <mxCell id="f8G5mTgghr_1lLVqrSHg-10" value="&lt;b&gt;CodeBert&lt;/b&gt;" style="html=1;whiteSpace=wrap;" vertex="1" parent="1">
          <mxGeometry x="80" y="571" width="70" height="30" as="geometry" />
        </mxCell>
        <mxCell id="f8G5mTgghr_1lLVqrSHg-12" style="edgeStyle=orthogonalEdgeStyle;rounded=0;orthogonalLoop=1;jettySize=auto;html=1;exitX=0.5;exitY=0;exitDx=0;exitDy=0;entryX=0.5;entryY=1;entryDx=0;entryDy=0;endSize=10;endArrow=block;endFill=0;" edge="1" parent="1" source="f8G5mTgghr_1lLVqrSHg-11" target="rv6NUnpbZEzaiWxQ6Tsc-83">
          <mxGeometry relative="1" as="geometry">
            <mxPoint x="200" y="532" as="targetPoint" />
          </mxGeometry>
        </mxCell>
        <mxCell id="f8G5mTgghr_1lLVqrSHg-11" value="&lt;b&gt;Compass&lt;/b&gt;" style="html=1;whiteSpace=wrap;" vertex="1" parent="1">
          <mxGeometry x="171" y="571" width="68" height="30" as="geometry" />
        </mxCell>
        <mxCell id="AsIz8oh1SWao4pBGF1q7-2" value="&lt;b&gt;CoFee&lt;/b&gt;" style="html=1;whiteSpace=wrap;" vertex="1" parent="1">
          <mxGeometry x="353.5" y="571" width="65" height="30" as="geometry" />
        </mxCell>
        <mxCell id="AsIz8oh1SWao4pBGF1q7-4" style="edgeStyle=orthogonalEdgeStyle;rounded=0;orthogonalLoop=1;jettySize=auto;html=1;exitX=0.5;exitY=0;exitDx=0;exitDy=0;entryX=0.5;entryY=0;entryDx=0;entryDy=0;endArrow=none;endFill=0;" edge="1" parent="1">
          <mxGeometry relative="1" as="geometry">
            <Array as="points">
              <mxPoint x="205" y="563" />
              <mxPoint x="380" y="563" />
              <mxPoint x="380" y="571" />
            </Array>
            <mxPoint x="205" y="571" as="sourcePoint" />
            <mxPoint x="388" y="571" as="targetPoint" />
          </mxGeometry>
        </mxCell>
        <mxCell id="AsIz8oh1SWao4pBGF1q7-5" value="*" style="text;html=1;strokeColor=none;fillColor=none;align=center;verticalAlign=middle;whiteSpace=wrap;rounded=0;" vertex="1" parent="1">
          <mxGeometry x="212" y="162" width="10" height="20" as="geometry" />
        </mxCell>
      </root>
    </mxGraphModel>
  </diagram>
  <diagram id="4kmXo03d0lTtoIYXIomX" name="feedback">
    <mxGraphModel grid="1" page="1" gridSize="10" guides="1" tooltips="1" connect="1" arrows="1" fold="1" pageScale="1" pageWidth="850" pageHeight="1100" math="0" shadow="0">
      <root>
        <mxCell id="0" />
        <mxCell id="1" parent="0" />
        <mxCell id="C6B7Bt2eLnDXUFJiPWyV-1" value="&lt;span style=&quot;font-weight: normal;&quot;&gt;«abstract»&lt;/span&gt;&lt;span style=&quot;border-color: var(--border-color); font-weight: 400;&quot;&gt;&lt;br style=&quot;border-color: var(--border-color);&quot;&gt;&lt;/span&gt;Feedback" style="swimlane;fontStyle=1;align=center;verticalAlign=top;childLayout=stackLayout;horizontal=1;startSize=40;horizontalStack=0;resizeParent=1;resizeParentMax=0;resizeLast=0;collapsible=1;marginBottom=0;whiteSpace=wrap;html=1;" vertex="1" parent="1">
          <mxGeometry x="320" y="180" width="170" height="68" as="geometry" />
        </mxCell>
        <mxCell id="C6B7Bt2eLnDXUFJiPWyV-2" value="..." style="text;strokeColor=none;fillColor=none;align=left;verticalAlign=top;spacingLeft=4;spacingRight=4;overflow=hidden;rotatable=0;points=[[0,0.5],[1,0.5]];portConstraint=eastwest;whiteSpace=wrap;html=1;" vertex="1" parent="C6B7Bt2eLnDXUFJiPWyV-1">
          <mxGeometry y="40" width="170" height="28" as="geometry" />
        </mxCell>
        <mxCell id="C6B7Bt2eLnDXUFJiPWyV-18" style="edgeStyle=none;rounded=0;orthogonalLoop=1;jettySize=auto;html=1;exitX=0.5;exitY=0;exitDx=0;exitDy=0;endArrow=block;endFill=0;startSize=16;endSize=12;entryX=0.5;entryY=1;entryDx=0;entryDy=0;entryPerimeter=0;" edge="1" parent="1" source="C6B7Bt2eLnDXUFJiPWyV-9" target="C6B7Bt2eLnDXUFJiPWyV-2">
          <mxGeometry relative="1" as="geometry">
            <mxPoint x="405" y="220" as="targetPoint" />
          </mxGeometry>
        </mxCell>
        <mxCell id="C6B7Bt2eLnDXUFJiPWyV-9" value="AutomaticFeedback" style="swimlane;fontStyle=1;align=center;verticalAlign=top;childLayout=stackLayout;horizontal=1;startSize=30;horizontalStack=0;resizeParent=1;resizeParentMax=0;resizeLast=0;collapsible=1;marginBottom=0;whiteSpace=wrap;html=1;" vertex="1" parent="1">
          <mxGeometry x="320" y="300" width="170" height="30" as="geometry" />
        </mxCell>
        <mxCell id="C6B7Bt2eLnDXUFJiPWyV-12" value="ManualFeedback" style="swimlane;fontStyle=1;align=center;verticalAlign=top;childLayout=stackLayout;horizontal=1;startSize=30;horizontalStack=0;resizeParent=1;resizeParentMax=0;resizeLast=0;collapsible=1;marginBottom=0;whiteSpace=wrap;html=1;" vertex="1" parent="1">
          <mxGeometry x="140" y="300" width="170" height="30" as="geometry" />
        </mxCell>
        <mxCell id="C6B7Bt2eLnDXUFJiPWyV-15" value="FeedbackSuggestion" style="swimlane;fontStyle=1;align=center;verticalAlign=top;childLayout=stackLayout;horizontal=1;startSize=30;horizontalStack=0;resizeParent=1;resizeParentMax=0;resizeLast=0;collapsible=1;marginBottom=0;whiteSpace=wrap;html=1;" vertex="1" parent="1">
          <mxGeometry x="500" y="300" width="170" height="58" as="geometry" />
        </mxCell>
        <mxCell id="78_07b5IAMyXJJ17Elv_-5" value="accept()" style="text;strokeColor=none;fillColor=none;align=left;verticalAlign=top;spacingLeft=4;spacingRight=4;overflow=hidden;rotatable=0;points=[[0,0.5],[1,0.5]];portConstraint=eastwest;whiteSpace=wrap;html=1;" vertex="1" parent="C6B7Bt2eLnDXUFJiPWyV-15">
          <mxGeometry y="30" width="170" height="28" as="geometry" />
        </mxCell>
        <mxCell id="C6B7Bt2eLnDXUFJiPWyV-19" style="edgeStyle=orthogonalEdgeStyle;rounded=0;orthogonalLoop=1;jettySize=auto;html=1;exitX=0.5;exitY=0;exitDx=0;exitDy=0;endArrow=block;endFill=0;startSize=16;endSize=12;entryX=0.5;entryY=0.996;entryDx=0;entryDy=0;entryPerimeter=0;" edge="1" parent="1" source="C6B7Bt2eLnDXUFJiPWyV-15" target="C6B7Bt2eLnDXUFJiPWyV-2">
          <mxGeometry relative="1" as="geometry">
            <mxPoint x="415" y="310" as="sourcePoint" />
            <mxPoint x="405.3399999999999" y="247.832" as="targetPoint" />
          </mxGeometry>
        </mxCell>
        <mxCell id="C6B7Bt2eLnDXUFJiPWyV-20" style="edgeStyle=orthogonalEdgeStyle;rounded=0;orthogonalLoop=1;jettySize=auto;html=1;exitX=0.5;exitY=0;exitDx=0;exitDy=0;endArrow=block;endFill=0;startSize=16;endSize=12;entryX=0.5;entryY=1.004;entryDx=0;entryDy=0;entryPerimeter=0;" edge="1" parent="1" source="C6B7Bt2eLnDXUFJiPWyV-12" target="C6B7Bt2eLnDXUFJiPWyV-2">
          <mxGeometry relative="1" as="geometry">
            <mxPoint x="595" y="310" as="sourcePoint" />
            <mxPoint x="405.3399999999999" y="247.832" as="targetPoint" />
          </mxGeometry>
        </mxCell>
      </root>
    </mxGraphModel>
  </diagram>
</mxfile>
